HIERARCHY
ROOT RootJoint
{
    OFFSET   0.000000   0.000000   0.000000
    CHANNELS 6 Xposition Yposition Zposition Xrotation Yrotation Zrotation
    JOINT pelvis_lowerback
    {
        OFFSET   0.000000   0.093605   0.000000
        CHANNELS 3 Xrotation Yrotation Zrotation
        JOINT lowerback_torso
        {
            OFFSET   0.000000   0.100000   0.000000
            CHANNELS 3 Xrotation Yrotation Zrotation
            JOINT torso_head
            {
                OFFSET   0.000000   0.282350   0.000000
                CHANNELS 3 Xrotation Yrotation Zrotation
                End Site
                {
                    OFFSET   0.000000   0.192650   0.000000
                }
            }
            JOINT rTorso_Clavicle
            {
                OFFSET  -0.001000   0.157500   0.000000
                CHANNELS 3 Xrotation Yrotation Zrotation
                JOINT rShoulder
                {
                    OFFSET  -0.117647   0.000000   0.000000
                    CHANNELS 3 Xrotation Yrotation Zrotation
                    JOINT rElbow
                    {
                        OFFSET  -0.245000   0.000000   0.000000
                        CHANNELS 3 Xrotation Yrotation Zrotation
                        JOINT rWrist
                        {
                            OFFSET  -0.240000   0.000000   0.000000
                            CHANNELS 3 Xrotation Yrotation Zrotation
                            End Site
                            {
                                OFFSET  -0.116353  -0.002500   0.000000
                            }
                        }
                    }
                }
            }
            JOINT lTorso_Clavicle
            {
                OFFSET   0.001000   0.157500   0.000000
                CHANNELS 3 Xrotation Yrotation Zrotation
                JOINT lShoulder
                {
                    OFFSET   0.117647   0.000000   0.000000
                    CHANNELS 3 Xrotation Yrotation Zrotation
                    JOINT lElbow
                    {
                        OFFSET   0.245000   0.000000   0.000000
                        CHANNELS 3 Xrotation Yrotation Zrotation
                        JOINT lWrist
                        {
                            OFFSET   0.240000   0.000000   0.000000
                            CHANNELS 3 Xrotation Yrotation Zrotation
                            End Site
                            {
                                OFFSET   0.116353  -0.002500   0.000000
                            }
                        }
                    }
                }
            }
        }
    }
    JOINT rHip
    {
        OFFSET  -0.100000  -0.051395   0.000000
        CHANNELS 3 Xrotation Yrotation Zrotation
        JOINT rKnee
        {
            OFFSET   0.000000  -0.410000   0.000000
            CHANNELS 3 Xrotation Yrotation Zrotation
            JOINT rAnkle
            {
                OFFSET   0.000000  -0.390000   0.000000
                CHANNELS 3 Xrotation Yrotation Zrotation
                JOINT rToeJoint
                {
                    OFFSET   0.000000  -0.050000   0.130000
                    CHANNELS 3 Xrotation Yrotation Zrotation
                    End Site
                    {
                        OFFSET  -0.010000   0.002000   0.060000
                    }
                }
            }
        }
    }
    JOINT lHip
    {
        OFFSET   0.100000  -0.051395   0.000000
        CHANNELS 3 Xrotation Yrotation Zrotation
        JOINT lKnee
        {
            OFFSET   0.000000  -0.410000   0.000000
            CHANNELS 3 Xrotation Yrotation Zrotation
            JOINT lAnkle
            {
                OFFSET   0.000000  -0.390000   0.000000
                CHANNELS 3 Xrotation Yrotation Zrotation
                JOINT lToeJoint
                {
                    OFFSET   0.000000  -0.050000   0.130000
                    CHANNELS 3 Xrotation Yrotation Zrotation
                    End Site
                    {
                        OFFSET   0.010000   0.002000   0.060000
                    }
                }
            }
        }
    }
}
MOTION
Frames: 14
Frame Time:   0.008333
 -2.376719   0.925631   3.975860   0.000000   0.000000   0.000000   0.000000   0.000000   0.000000   0.000000   0.000000   0.000000   0.000000   0.000000   0.000000   0.000000   0.000000   0.000000   0.000000   0.000000   0.000000   0.000000   0.000000   0.000000   0.000000   0.000000   0.000000   0.000000   0.000000   0.000000   0.000000   0.000000   0.000000   0.000000   0.000000   0.000000   0.000000   0.000000   0.000000   0.000000   0.000000   0.000000   0.000000   0.000000   0.000000   0.000000   0.000000   0.000000   0.000000   0.000000   0.000000   0.000000   0.000000   0.000000   0.000000   0.000000   0.000000   0.000000   0.000000   0.000000   0.000000   0.000000   0.000000
 -2.376506   0.925704   3.975972   0.003526   0.126483   0.168657  -0.228194   0.123468  -0.246960   0.135173  -0.118127   0.092797   0.161552   0.176178  -0.070280   0.340645  -0.702309  -0.413619   1.057350  -0.060977   2.417555   0.064972   3.606053  -0.042858   0.070020  -1.382071  -2.175973  -0.027276   0.377732   0.304673   1.258754  -0.239006  -2.271076   0.061282  -3.514601   0.036794   0.003959   1.669934   1.943626  -0.455160  -0.093404  -0.315479   1.152144   0.001470   0.000299  -0.903288  -0.396290  -0.028335  -0.012023  -0.000018   0.000038  -0.180136  -0.372860  -0.112403   1.066899  -0.000552  -0.002293  -1.613587  -0.128143   0.024555  -0.021893   0.000015   0.000072
 -2.376222   0.925890   3.976243  -0.078910   0.324774   0.349430  -0.502957   0.207409  -0.487540   0.263768  -0.287137   0.175713   0.340142   0.353032  -0.141378   0.670382  -1.272420  -0.246548   2.038510   0.047128   5.128197   0.152996   7.339619  -0.071957   0.193202  -1.769677  -3.715513  -0.043876   0.550275   0.040259   2.412528  -0.704943  -4.836992   0.144587  -7.180497   0.061686   0.052263   2.285022   3.227596  -0.910985  -0.187446  -0.744311   2.359991   0.003792   0.001158  -1.742466  -0.772883  -0.063770  -0.040068  -0.000083   0.000099  -0.158980  -0.739558  -0.168070   2.228235  -0.001809  -0.003496  -3.126845  -0.252302   0.041952  -0.132637   0.000148   0.000343
 -2.375907   0.925873   3.976598  -0.182132   0.569559   0.517442  -0.814187   0.243861  -0.706268   0.344602  -0.492468   0.256007   0.492691   0.519138  -0.207945   0.982640  -1.713023   0.308646   2.938440   0.262390   7.953113   0.244534  11.105175  -0.089611   0.319348  -1.809507  -4.582544  -0.056451   0.572061  -0.604008   3.455534  -1.298839  -7.521320   0.231027 -10.892982   0.076921   0.104827   2.468255   3.845121  -1.396645  -0.272752  -1.236868   3.493866   0.006272   0.002143  -2.524791  -1.125095  -0.103438  -0.065114  -0.000144   0.000124  -0.002660  -1.079648  -0.147006   3.375360  -0.003433  -0.003618  -4.537131  -0.367309   0.054779  -0.235365   0.000296   0.000467
 -2.375575   0.925423   3.976986  -0.289254   0.841253   0.669356  -1.143951   0.241152  -0.905512   0.385248  -0.723634   0.335278   0.618740   0.674114  -0.269542   1.282627  -2.066656   1.110660   3.764744   0.549005  10.795200   0.329504  14.885585  -0.099726   0.437939  -1.713557  -4.937769  -0.062748   0.502227  -1.486948   4.396006  -1.971802 -10.225679   0.310920 -14.630731   0.086272   0.153765   2.451783   3.964238  -1.919441  -0.347489  -1.773308   4.536299   0.008567   0.002973  -3.256042  -1.454062  -0.146027  -0.092860  -0.000215   0.000138   0.254372  -1.394357  -0.055107   4.486271  -0.005142  -0.003076  -5.852437  -0.473575   0.064160  -0.330982   0.000442   0.000504
 -2.375231   0.924370   3.977370  -0.395968   1.125767   0.805782  -1.477153   0.206971  -1.088119   0.401052  -0.973071   0.413181   0.723636   0.818606  -0.326692   1.574316  -2.363332   2.060990   4.524535   0.881548  13.590848   0.402911  18.672437  -0.105157   0.544710  -1.566573  -4.932459  -0.061566   0.378668  -2.509705   5.242639  -2.691209 -12.885718   0.379627 -18.383126   0.092544   0.195600   2.335893   3.739083  -2.477105  -0.410552  -2.341186   5.489476   0.010506   0.003541  -3.939929  -1.761161  -0.190536  -0.123141  -0.000292   0.000142   0.589695  -1.685852   0.097023   5.555462  -0.006754  -0.002193  -7.079388  -0.571889   0.070840  -0.420020   0.000574   0.000492
 -2.374877   0.922589   3.977722  -0.500619   1.412323   0.927985  -1.802587   0.147376  -1.256041   0.404989  -1.235180   0.489455   0.812283   0.953333  -0.379963   1.860189  -2.620798   3.090198   5.223908   1.242947  16.298730   0.462897  22.461502  -0.107841   0.638672  -1.407552  -4.683649  -0.053009   0.223462  -3.602626   6.003567  -3.435260 -15.459914   0.435613 -22.144552   0.097661   0.229420   2.169877   3.288113  -3.064843  -0.461114  -2.930631   6.359165   0.012015   0.003830  -4.579569  -2.047734  -0.236152  -0.154777  -0.000368   0.000141   0.985612  -1.955870   0.298420   6.581009  -0.008158  -0.001191  -8.223959  -0.662984   0.075382  -0.502583   0.000682   0.000456
 -2.374720   0.921314   3.977785  -0.496320   1.465696   0.717529  -2.140800   0.177460  -1.090377   0.373977  -1.410581   0.641341   0.812086   1.060361  -0.443967   2.067372  -2.900437   3.778634   6.196941   1.807131  18.913046   0.505422  26.246074  -0.120545   0.660258  -1.271302  -3.916246   0.154867   0.058852  -4.366221   6.761317  -4.313724 -18.294299   0.483655 -25.917431   0.115442   0.192911   1.923819   2.561020  -4.207935  -0.813782  -2.814757   8.613628   0.010393  -0.004275  -5.259660  -2.488463   0.149947  -0.080031  -0.000487  -0.000401   1.542647  -2.010803   0.843739   6.624129  -0.006644  -0.000946  -8.907115  -0.679579   0.143031  -0.312479  -0.000088   0.000296
 -2.374279   0.919904   3.977684  -0.478858   1.649164   0.575935  -2.431706   0.125905  -0.968661   0.354899  -1.629534   0.766643   0.801646   1.157603  -0.492792   2.269415  -3.154668   4.329577   7.087279   2.380572  21.297195   0.530851  30.035936  -0.131889   0.683836  -1.123008  -3.101204   0.351944  -0.149542  -5.040954   7.431623  -5.208356 -20.928108   0.517388 -29.704680   0.133085   0.159373   1.619747   1.713670  -5.278691  -1.092935  -2.778659  10.741450   0.009051  -0.006501  -6.030316  -2.840898   0.386304   0.025298  -0.000535  -0.000776   2.022286  -2.065757   1.264960   6.542992  -0.005142  -0.000872  -9.550019  -0.696142   0.205847  -0.132849  -0.000583   0.000374
 -2.373642   0.918311   3.977472  -0.458420   1.892322   0.463021  -2.677096   0.044995  -0.860200   0.353098  -1.868335   0.869440   0.792571   1.247990  -0.534941   2.459560  -3.384932   4.782343   7.896238   2.951639  23.471133   0.544028  33.827407  -0.142135   0.708319  -0.973567  -2.374604   0.526110  -0.386878  -5.644573   8.014671  -6.101030 -23.360131   0.540192 -33.502556   0.149913   0.128359   1.276778   0.902688  -6.281130  -1.337972  -2.786940  12.735407   0.008156  -0.006438  -6.767657  -3.165464   0.591393   0.113219  -0.000521  -0.000907   2.432533  -2.110115   1.620612   6.434151  -0.003925  -0.000907 -10.152667  -0.712559   0.263563   0.023111  -0.000860   0.000513
 -2.372685   0.918001   3.977545  -0.521861   2.168736   0.784082  -2.870076  -0.041359  -1.086407   0.388428  -2.106471   0.812584   0.793741   1.332370  -0.584542   2.647906  -3.597413   5.284245   8.637218   3.519316  25.523890   0.552687  37.616879  -0.150711   0.734677  -0.841077  -1.717946   0.687533  -0.624276  -6.247192   8.526758  -6.961462 -25.618842   0.557632 -37.289250   0.164176   0.100886   0.971243   0.178194  -7.018550  -1.512190  -3.263335  14.434663   0.007975  -0.005431  -7.584111  -3.455837   0.731774   0.220793  -0.000444  -0.000989   2.552559  -2.059641   1.271213   6.299432  -0.003235  -0.001125 -10.545062  -0.662074   0.192026   0.217459  -0.000536   0.001082
 -2.371945   0.917773   3.977820  -0.602666   2.319014   0.996206  -3.043814  -0.083214  -1.187177   0.431848  -2.300815   0.768855   0.795109   1.412659  -0.637366   2.824214  -3.780318   5.676500   9.311988   4.081618  27.400080   0.553253  41.412216  -0.157411   0.758322  -0.691433  -1.074849   0.847700  -0.844780  -6.782235   8.983302  -7.788308 -27.728514   0.568217 -41.083587   0.178515   0.067979   0.663033  -0.558758  -7.696613  -1.668108  -3.574355  15.965521   0.006790  -0.005762  -8.368413  -3.730319   0.860833   0.305059  -0.000413  -0.001055   2.675496  -2.045081   1.024831   6.268755  -0.002605  -0.000947 -10.952280  -0.655049   0.193392   0.340585  -0.000396   0.001067
 -2.371395   0.917551   3.978276  -0.684699   2.377409   1.169895  -3.207041  -0.105539  -1.258969   0.473661  -2.464615   0.740985   0.796865   1.487899  -0.682579   2.984213  -3.939143   5.996906   9.922596   4.631246  29.114362   0.547652  45.210865  -0.162034   0.782542  -0.530137  -0.497369   1.000071  -1.048199  -7.250869   9.387425  -8.572389 -29.677023   0.573537 -44.877928   0.193085   0.034694   0.366949  -1.251513  -8.345810  -1.815435  -3.813053  17.382724   0.005203  -0.006783  -9.101984  -3.987467   0.978529   0.372406  -0.000393  -0.001090   2.813040  -2.041216   0.818915   6.261923  -0.002087  -0.000762 -11.339293  -0.653627   0.202742   0.453455  -0.000293   0.000931
 -2.371101   0.917245   3.978829  -0.814194   2.502450   1.268396  -3.328493  -0.215612  -1.277299   0.595760  -2.601501   0.734347   0.827407   1.554858  -0.669051   3.092593  -4.060817   6.095443  10.594341   5.269553  30.499889   0.533610  48.999594  -0.175437   0.752622  -0.371015   0.314195   1.255892  -1.294729  -7.397790   9.777771  -9.467097 -31.408225   0.576236 -48.680013   0.221617  -0.073055   0.073415  -2.060589  -8.820781  -1.986333  -3.952066  18.680779   0.003757  -0.006629  -9.807246  -4.230255   1.016193   0.519892  -0.000377  -0.001312   2.927783  -1.992365   0.728307   6.314386  -0.001659  -0.000526 -11.240774  -0.417107   0.244704   0.685275  -0.000330   0.001590
